# xmcd
#
# Track frame offsets:
#	183
#	19958
#	55683
#	72383
#	96270
#	132398
#	149238
#	175045
#	229603
#	252550
#	302433
#
# Disc length: 4231 seconds
#
# Revision: 0
# Processed by: cddbd v1.4PL0 Copyright (c) Steve Scherf et al.
# Submitted via: dBpowerAMP V4.0
#
DISCID=9e10850b
DTITLE=Albert Collins - In Concert
DYEAR=1997
DGENRE=Blues
TTITLE0=Icy Intro
TTITLE1=How Blue Can You Get?
TTITLE2=Things That I Used To Do
TTITLE3=Thaw Out
TTITLE4=I've Got A Mind To Travel
TTITLE5=Deep Freeze
TTITLE6=So Tired
TTITLE7=Frosty
TTITLE8=Baby What You Want Me To Do
TTITLE9=Can't You See What You're Doing To Me
TTITLE10=Backstroke
EXTD=
EXTT0=
EXTT1=
EXTT2=
EXTT3=
EXTT4=
EXTT5=
EXTT6=
EXTT7=
EXTT8=
EXTT9=
EXTT10=
PLAYORDER=
